<svg width="76" height="76" viewBox="0 0 76 76" fill="none" xmlns="http://www.w3.org/2000/svg">
<path d="M73.2771 40.7229L58.5354 25.9813C58.2054 25.6492 57.8127 25.3859 57.3802 25.2067C56.9476 25.0275 56.4838 24.936 56.0156 24.9375H35.625V27.3125H41.5625V45.125H43.9375V27.3125H56.0156C56.1717 27.3124 56.3263 27.343 56.4706 27.4028C56.6148 27.4625 56.7459 27.55 56.8563 27.6604L58.8834 29.6875H53.4375C52.8076 29.6875 52.2035 29.9377 51.7581 30.3831C51.3127 30.8285 51.0625 31.4326 51.0625 32.0625V42.75C51.0625 43.3799 51.3127 43.984 51.7581 44.4294C52.2035 44.8748 52.8076 45.125 53.4375 45.125H71.25V54.625C71.25 54.9399 71.1249 55.242 70.9022 55.4647C70.6795 55.6874 70.3774 55.8125 70.0625 55.8125H67.5925C67.3086 53.8355 66.3214 52.0271 64.812 50.719C63.3027 49.4109 61.3723 48.6909 59.375 48.6909C57.3777 48.6909 55.4473 49.4109 53.938 50.719C52.4286 52.0271 51.4414 53.8355 51.1575 55.8125H34.3425C34.0586 53.8355 33.0714 52.0271 31.562 50.719C30.0527 49.4109 28.1223 48.6909 26.125 48.6909C24.1277 48.6909 22.1973 49.4109 20.688 50.719C19.1786 52.0271 18.1914 53.8355 17.9075 55.8125H15.4375C15.1226 55.8125 14.8205 55.6874 14.5978 55.4647C14.3751 55.242 14.25 54.9399 14.25 54.625V43.9375H11.875V54.625C11.875 55.5698 12.2503 56.476 12.9184 57.1441C13.5865 57.8122 14.4927 58.1875 15.4375 58.1875H17.9075C18.1667 59.9931 19.0145 61.6628 20.3193 62.9375H2.375V65.3125H59.375C61.3718 65.3087 63.3006 64.5868 64.8092 63.2787C66.3179 61.9707 67.3058 60.1636 67.5925 58.1875H70.0625C71.0073 58.1875 71.9135 57.8122 72.5816 57.1441C73.2497 56.476 73.625 55.5698 73.625 54.625V41.5625C73.6249 41.2476 73.4998 40.9456 73.2771 40.7229ZM20.1875 57C20.1875 55.8257 20.5357 54.6777 21.1881 53.7013C21.8406 52.7249 22.7679 51.9639 23.8528 51.5145C24.9378 51.0651 26.1316 50.9475 27.2833 51.1766C28.4351 51.4057 29.4931 51.9712 30.3234 52.8016C31.1538 53.6319 31.7193 54.6899 31.9484 55.8417C32.1775 56.9934 32.0599 58.1873 31.6105 59.2722C31.1611 60.3571 30.4001 61.2844 29.4237 61.9369C28.4473 62.5893 27.2993 62.9375 26.125 62.9375C24.5509 62.9356 23.0417 62.3095 21.9286 61.1964C20.8155 60.0833 20.1894 58.5741 20.1875 57ZM31.9307 62.9375C33.2355 61.6628 34.0833 59.9931 34.3425 58.1875H51.1575C51.4167 59.9931 52.2645 61.6628 53.5693 62.9375H31.9307ZM59.375 62.9375C58.2007 62.9375 57.0527 62.5893 56.0763 61.9369C55.0999 61.2844 54.3389 60.3571 53.8895 59.2722C53.4401 58.1873 53.3225 56.9934 53.5516 55.8417C53.7807 54.6899 54.3462 53.6319 55.1766 52.8016C56.0069 51.9712 57.0649 51.4057 58.2167 51.1766C59.3684 50.9475 60.5622 51.0651 61.6472 51.5145C62.7321 51.9639 63.6594 52.7249 64.3119 53.7013C64.9643 54.6777 65.3125 55.8257 65.3125 57C65.3106 58.5741 64.6845 60.0833 63.5714 61.1964C62.4583 62.3095 60.9491 62.9356 59.375 62.9375ZM53.4375 42.75V32.0625H61.2584L71.25 42.0541V42.75H53.4375Z" fill="url(#paint0_linear)"/>
<path d="M27.3125 55.8125H24.9375V58.1875H27.3125V55.8125Z" fill="url(#paint1_linear)"/>
<path d="M60.5625 55.8125H58.1875V58.1875H60.5625V55.8125Z" fill="url(#paint2_linear)"/>
<path d="M8.3125 52.25H2.375V54.625H8.3125V52.25Z" fill="url(#paint3_linear)"/>
<path d="M8.3125 47.5H4.75V49.875H8.3125V47.5Z" fill="url(#paint4_linear)"/>
<path d="M8.3125 42.75H5.9375V45.125H8.3125V42.75Z" fill="url(#paint5_linear)"/>
<path d="M17.8125 41.5625C20.8657 41.5625 23.8504 40.6571 26.3891 38.9608C28.9278 37.2645 30.9065 34.8535 32.0749 32.0327C33.2433 29.2118 33.549 26.1079 32.9534 23.1133C32.3577 20.1187 30.8874 17.368 28.7285 15.209C26.5695 13.0501 23.8188 11.5798 20.8242 10.9841C17.8296 10.3885 14.7257 10.6942 11.9048 11.8626C9.08399 13.031 6.67298 15.0097 4.97669 17.5484C3.28039 20.0871 2.375 23.0718 2.375 26.125C2.37971 30.2178 4.00767 34.1417 6.90175 37.0358C9.79582 39.9298 13.7197 41.5578 17.8125 41.5625ZM17.8125 13.0625C20.396 13.0625 22.9215 13.8286 25.0696 15.2639C27.2178 16.6993 28.892 18.7393 29.8807 21.1262C30.8693 23.5131 31.128 26.1395 30.624 28.6734C30.12 31.2072 28.8759 33.5348 27.0491 35.3616C25.2223 37.1884 22.8947 38.4325 20.3609 38.9365C17.827 39.4405 15.2006 39.1818 12.8137 38.1932C10.4268 37.2045 8.38675 35.5303 6.95143 33.3821C5.5161 31.234 4.75 28.7085 4.75 26.125C4.75409 22.6619 6.13162 19.3417 8.58043 16.8929C11.0292 14.4441 14.3494 13.0666 17.8125 13.0625Z" fill="url(#paint6_linear)"/>
<path d="M17.8125 36.8125C18.1274 36.8124 18.4294 36.6873 18.6521 36.4646C19.4168 35.6998 26.125 28.8444 26.125 23.75C26.125 21.5454 25.2492 19.4311 23.6903 17.8722C22.1314 16.3133 20.0171 15.4375 17.8125 15.4375C15.6079 15.4375 13.4936 16.3133 11.9347 17.8722C10.3758 19.4311 9.5 21.5454 9.5 23.75C9.5 28.8444 16.2082 35.6998 16.9729 36.4646C17.1956 36.6873 17.4976 36.8124 17.8125 36.8125ZM17.8125 17.8125C19.3866 17.8144 20.8958 18.4405 22.0089 19.5536C23.122 20.6667 23.7481 22.1759 23.75 23.75C23.75 26.7971 20.0129 31.5056 17.8125 33.9043C15.6121 31.5056 11.875 26.7971 11.875 23.75C11.8769 22.1759 12.503 20.6667 13.6161 19.5536C14.7292 18.4405 16.2384 17.8144 17.8125 17.8125Z" fill="url(#paint7_linear)"/>
<path d="M21.375 23.75C21.375 23.0454 21.1661 22.3566 20.7746 21.7708C20.3832 21.1849 19.8268 20.7283 19.1758 20.4587C18.5248 20.189 17.8085 20.1185 17.1175 20.256C16.4264 20.3934 15.7917 20.7327 15.2934 21.2309C14.7952 21.7292 14.4559 22.3639 14.3185 23.055C14.181 23.746 14.2515 24.4623 14.5212 25.1133C14.7908 25.7643 15.2474 26.3207 15.8333 26.7121C16.4191 27.1036 17.1079 27.3125 17.8125 27.3125C18.7573 27.3125 19.6635 26.9372 20.3316 26.2691C20.9997 25.601 21.375 24.6948 21.375 23.75ZM16.625 23.75C16.625 23.5151 16.6946 23.2855 16.8251 23.0903C16.9556 22.895 17.1411 22.7428 17.3581 22.6529C17.5751 22.563 17.8138 22.5395 18.0442 22.5853C18.2745 22.6311 18.4861 22.7442 18.6522 22.9103C18.8183 23.0764 18.9314 23.288 18.9772 23.5183C19.023 23.7487 18.9995 23.9874 18.9096 24.2044C18.8197 24.4214 18.6675 24.6069 18.4722 24.7374C18.277 24.8679 18.0474 24.9375 17.8125 24.9375C17.4976 24.9375 17.1955 24.8124 16.9728 24.5897C16.7501 24.367 16.625 24.0649 16.625 23.75Z" fill="url(#paint8_linear)"/>
<path d="M52.25 47.5H47.5V49.875H52.25V47.5Z" fill="url(#paint9_linear)"/>
<defs>
<linearGradient id="paint0_linear" x1="38.0344" y1="66.4953" x2="37.8777" y2="6.69038" gradientUnits="userSpaceOnUse">
<stop stop-color="#E93E3A"/>
<stop offset="0.36" stop-color="#ED683C"/>
<stop offset="0.716" stop-color="#F3903F"/>
<stop offset="1" stop-color="#FDC70C"/>
</linearGradient>
<linearGradient id="paint1_linear" x1="77.2374" y1="188.865" x2="76.9239" y2="69.255" gradientUnits="userSpaceOnUse">
<stop stop-color="#E93E3A"/>
<stop offset="0.36" stop-color="#ED683C"/>
<stop offset="0.716" stop-color="#F3903F"/>
<stop offset="1" stop-color="#FDC70C"/>
</linearGradient>
<linearGradient id="paint2_linear" x1="176.987" y1="188.689" x2="176.674" y2="69.0816" gradientUnits="userSpaceOnUse">
<stop stop-color="#E93E3A"/>
<stop offset="0.36" stop-color="#ED683C"/>
<stop offset="0.716" stop-color="#F3903F"/>
<stop offset="1" stop-color="#FDC70C"/>
</linearGradient>
<linearGradient id="paint3_linear" x1="29.2659" y1="185.412" x2="29.1405" y2="65.8011" gradientUnits="userSpaceOnUse">
<stop stop-color="#E93E3A"/>
<stop offset="0.36" stop-color="#ED683C"/>
<stop offset="0.716" stop-color="#F3903F"/>
<stop offset="1" stop-color="#FDC70C"/>
</linearGradient>
<linearGradient id="paint4_linear" x1="24.4827" y1="180.654" x2="24.2753" y2="61.0442" gradientUnits="userSpaceOnUse">
<stop stop-color="#E93E3A"/>
<stop offset="0.36" stop-color="#ED683C"/>
<stop offset="0.716" stop-color="#F3903F"/>
<stop offset="1" stop-color="#FDC70C"/>
</linearGradient>
<linearGradient id="paint5_linear" x1="20.3062" y1="175.902" x2="19.9927" y2="56.2923" gradientUnits="userSpaceOnUse">
<stop stop-color="#E93E3A"/>
<stop offset="0.36" stop-color="#ED683C"/>
<stop offset="0.716" stop-color="#F3903F"/>
<stop offset="1" stop-color="#FDC70C"/>
</linearGradient>
<linearGradient id="paint6_linear" x1="468.248" y1="1740.92" x2="464.172" y2="185.996" gradientUnits="userSpaceOnUse">
<stop stop-color="#E93E3A"/>
<stop offset="0.36" stop-color="#ED683C"/>
<stop offset="0.716" stop-color="#F3903F"/>
<stop offset="1" stop-color="#FDC70C"/>
</linearGradient>
<linearGradient id="paint7_linear" x1="260.438" y1="1213.29" x2="256.838" y2="136.81" gradientUnits="userSpaceOnUse">
<stop stop-color="#E93E3A"/>
<stop offset="0.36" stop-color="#ED683C"/>
<stop offset="0.716" stop-color="#F3903F"/>
<stop offset="1" stop-color="#FDC70C"/>
</linearGradient>
<linearGradient id="paint8_linear" x1="121.795" y1="419.473" x2="120.861" y2="60.6433" gradientUnits="userSpaceOnUse">
<stop stop-color="#E93E3A"/>
<stop offset="0.36" stop-color="#ED683C"/>
<stop offset="0.716" stop-color="#F3903F"/>
<stop offset="1" stop-color="#FDC70C"/>
</linearGradient>
<linearGradient id="paint9_linear" x1="247.185" y1="180.426" x2="247.028" y2="60.8184" gradientUnits="userSpaceOnUse">
<stop stop-color="#E93E3A"/>
<stop offset="0.36" stop-color="#ED683C"/>
<stop offset="0.716" stop-color="#F3903F"/>
<stop offset="1" stop-color="#FDC70C"/>
</linearGradient>
</defs>
</svg>
